<svg viewBox="0 0 85.04 85.04" xmlns="http://www.w3.org/2000/svg"><g fill="#37a9e1"><path d="m19.38 22.18a3.83 3.83 0 1 0 -3.82-3.82 3.82 3.82 0 0 0 3.82 3.82z"/><path d="m19.38 64.85a3.83 3.83 0 0 0 -3.82 3.83 3.83 3.83 0 1 0 3.82-3.83z"/><path d="m68.34 64.85a3.84 3.84 0 0 0 -3.83 3.83 3.83 3.83 0 1 0 3.83-3.83z"/><path d="m68.34 22.18a3.83 3.83 0 1 0 -3.83-3.82 3.83 3.83 0 0 0 3.83 3.82z"/></g><path d="m18.38 21.18a3.83 3.83 0 1 0 -3.82-3.82 3.82 3.82 0 0 0 3.82 3.82z" fill="none" stroke="#12100b" stroke-miterlimit="10" stroke-width=".5"/><path d="m18.38 63.85a3.83 3.83 0 0 0 -3.82 3.83 3.83 3.83 0 1 0 3.82-3.83z" fill="none" stroke="#12100b" stroke-miterlimit="10" stroke-width=".5"/><path d="m67.34 63.85a3.84 3.84 0 0 0 -3.83 3.83 3.83 3.83 0 1 0 3.83-3.83z" fill="none" stroke="#12100b" stroke-miterlimit="10" stroke-width=".5"/><path d="m67.34 21.18a3.83 3.83 0 1 0 -3.83-3.82 3.83 3.83 0 0 0 3.83 3.82z" fill="none" stroke="#12100b" stroke-miterlimit="10" stroke-width=".5"/><path d="m77.87 40.69h-3.45l1.77-1.77a3.83 3.83 0 0 0 -5.42-5.41l-7.15 7.18h-7.08a12.85 12.85 0 0 0 -.83-2l8.07-8.09a3.83 3.83 0 1 0 -5.42-5.4l-8 8a12.57 12.57 0 0 0 -2-.83v-7.03l7.16-7.18a3.83 3.83 0 1 0 -5.42-5.4l-1.76 1.74v-3.44a3.83 3.83 0 1 0 -7.65 0v3.44l-1.69-1.74a3.82 3.82 0 1 0 -5.41 5.4l7.15 7.18v7.09a12.85 12.85 0 0 0 -2 .83l-8-8a3.83 3.83 0 0 0 -5.42 5.4l8.06 8.09a13.87 13.87 0 0 0 -.82 2h-7.14l-7.15-7.18a3.83 3.83 0 0 0 -5.42 5.41l1.77 1.77h-3.45a3.83 3.83 0 0 0 0 7.65h3.45l-1.77 1.78a3.83 3.83 0 1 0 5.42 5.4l7.15-7.18h7.08a13.41 13.41 0 0 0 .82 2l-8.06 8.1a3.83 3.83 0 0 0 5.42 5.4l8-8.06a12 12 0 0 0 2 .84v7.08l-7.15 7.19a3.82 3.82 0 1 0 5.47 5.33l1.74-1.74v3.46a3.83 3.83 0 1 0 7.65 0v-3.46l1.74 1.74a3.83 3.83 0 0 0 5.42-5.4l-7.16-7.19v-7.08a11.74 11.74 0 0 0 2-.84l8 8.06a3.78 3.78 0 0 0 2.68 1.17 3.82 3.82 0 0 0 2.71-6.52l-8.07-8.1a12.46 12.46 0 0 0 .83-2h7.08l7.15 7.18a3.83 3.83 0 0 0 5.42-5.4l-1.77-1.78h3.45a3.83 3.83 0 0 0 0-7.65zm-33.35 8.87a5 5 0 1 1 4.95-5 5 5 0 0 1 -4.95 5z" fill="#d6ece8"/><path d="m75.87 38.69h-3.45l1.77-1.77a3.83 3.83 0 0 0 -5.42-5.41l-7.15 7.18h-7.08a12.85 12.85 0 0 0 -.83-2l8.07-8.09a3.83 3.83 0 0 0 -5.42-5.4l-8 8.05a12.57 12.57 0 0 0 -2-.83v-7.08l7.16-7.18a3.83 3.83 0 1 0 -5.42-5.4l-1.76 1.74v-3.44a3.83 3.83 0 1 0 -7.65 0v3.44l-1.69-1.74a3.82 3.82 0 1 0 -5.41 5.4l7.15 7.18v7.09a12.85 12.85 0 0 0 -2 .83l-8-8a3.83 3.83 0 1 0 -5.42 5.4l8.06 8.09a13.87 13.87 0 0 0 -.82 2h-7.14l-7.15-7.18a3.83 3.83 0 0 0 -5.42 5.41l1.77 1.77h-3.45a3.83 3.83 0 0 0 0 7.65h3.45l-1.77 1.78a3.83 3.83 0 1 0 5.42 5.4l7.15-7.18h7.08a13.41 13.41 0 0 0 .82 2l-8.06 8.1a3.83 3.83 0 0 0 5.42 5.4l8-8.06a12 12 0 0 0 2 .84v7.08l-7.15 7.19a3.82 3.82 0 1 0 5.47 5.33l1.74-1.74v3.46a3.83 3.83 0 1 0 7.65 0v-3.46l1.74 1.74a3.83 3.83 0 0 0 5.42-5.4l-7.16-7.19v-7.08a11.74 11.74 0 0 0 2-.84l8 8.06a3.78 3.78 0 0 0 2.68 1.17 3.82 3.82 0 0 0 2.71-6.52l-8.07-8.1a12.46 12.46 0 0 0 .83-2h7.08l7.15 7.18a3.83 3.83 0 0 0 5.42-5.4l-1.77-1.78h3.45a3.83 3.83 0 0 0 0-7.65zm-33.35 8.87a5 5 0 1 1 4.95-5 5 5 0 0 1 -4.95 5z" fill="none" stroke="#12100b" stroke-miterlimit="10" stroke-width=".5"/></svg>