<svg viewBox="0 0 85.04 85.04" xmlns="http://www.w3.org/2000/svg"><path d="m39.86 54.93h-21.86c-2.18 0-2.18 0-2.18-2.14s0-4.16 0-6.24c0-2.6 1.42-4 4-4h40.18a3.63 3.63 0 0 1 4 4v6.83c0 1.47-.17 1.64-1.61 1.64h-22.53zm14.55-2a4.16 4.16 0 0 0 4.23-4.25 4.21 4.21 0 0 0 -8.42.06 4.2 4.2 0 0 0 4.19 4.14zm-29 0a4.19 4.19 0 0 0 4.24-4.13 4.27 4.27 0 0 0 -4.13-4.29 4.34 4.34 0 0 0 -4.32 4.19 4.25 4.25 0 0 0 4.21 4.18z" fill="#d6ece8"/><path d="m55.37 39.43h-31.13c1-1.88 1.9-3.72 3-5.41a4.78 4.78 0 0 1 4.15-2.09c5.69 0 11.38-.05 17.07 0a5.12 5.12 0 0 1 4.82 3 37.71 37.71 0 0 1 2.09 4.5z" fill="#d6ece8"/><g fill="none" stroke="#12100b" stroke-miterlimit="10"><circle cx="25.47" cy="48.72" r="3.12" stroke-width=".51"/><circle cx="54.45" cy="48.72" r="3.12" stroke-width=".51"/><path d="m18.24 41h43.76a4.19 4.19 0 0 1 4.19 4.19v9.64a2.18 2.18 0 0 1 -2.19 2.17h-47.42a2.18 2.18 0 0 1 -2.18-2.18v-10a3.84 3.84 0 0 1 3.84-3.82z" stroke-width=".51"/><path d="m21.9 41 5.47-9a2.87 2.87 0 0 1 2.44-1.37h19.46a2.85 2.85 0 0 1 2.27 1.12l7.1 9.25" stroke-width=".51"/></g><path d="m50.52 58h9.87a0 0 0 0 1 0 0v1.47a4.93 4.93 0 0 1 -4.93 4.93 4.93 4.93 0 0 1 -4.93-4.93v-1.47a0 0 0 0 1 -.01 0z" fill="#37a9e1"/><path d="m20.51 58h9.87a0 0 0 0 1 0 0v1.47a4.93 4.93 0 0 1 -4.93 4.93 4.93 4.93 0 0 1 -4.93-4.93v-1.47a0 0 0 0 1 -.01 0z" fill="#37a9e1"/><path d="m20.51 57h9.87a0 0 0 0 1 0 0v1.47a4.93 4.93 0 0 1 -4.93 4.93 4.93 4.93 0 0 1 -4.93-4.93v-1.47a0 0 0 0 1 -.01 0z" fill="none" stroke="#12100b" stroke-miterlimit="10" stroke-width=".51"/><path d="m49.49 57h9.87a0 0 0 0 1 0 0v1.47a4.93 4.93 0 0 1 -4.93 4.93 4.93 4.93 0 0 1 -4.93-4.93v-1.47a0 0 0 0 1 -.01 0z" fill="none" stroke="#12100b" stroke-miterlimit="10" stroke-width=".51"/><path d="m71.53 32.19h-2.08v-.66a.21.21 0 0 0 -.21-.22h-1.49a.22.22 0 0 0 -.22.22v.66h-5.1v-.66a.22.22 0 0 0 -.22-.22h-1.48a.22.22 0 0 0 -.22.22v.66h-2.07a.21.21 0 0 0 -.22.21v1.38a.22.22 0 0 0 .22.22h13.09a.22.22 0 0 0 .22-.22v-1.38a.21.21 0 0 0 -.22-.21zm0 0" fill="#e96c0f"/><path d="m59.14 41.39a.29.29 0 0 0 .28.28h11.12a.29.29 0 0 0 .29-.28v-6.65h-11.69zm4.51-2.87.66-2.11a.1.1 0 0 1 .08-.06h1a.08.08 0 0 1 .07 0 .06.06 0 0 1 0 .07l-.4 1.24h1.13a.1.1 0 0 1 .08 0 .1.1 0 0 1 0 .09l-1.5 2.33a.09.09 0 0 1 -.08 0 .09.09 0 0 1 0-.1l.24-1.48h-1.19a.08.08 0 0 1 -.07 0 .07.07 0 0 1 0-.07zm0 0" fill="#e96c0f"/><path d="m70.84 32.19h-2.08v-.66a.22.22 0 0 0 -.22-.22h-1.48a.22.22 0 0 0 -.22.22v.66h-5.1v-.66a.22.22 0 0 0 -.22-.22h-1.52a.22.22 0 0 0 -.22.22v.66h-2.04a.21.21 0 0 0 -.21.21v1.38a.21.21 0 0 0 .21.22h13.1a.21.21 0 0 0 .21-.22v-1.38a.21.21 0 0 0 -.21-.21zm0 0" fill="none" stroke="#12100b" stroke-miterlimit="10" stroke-width=".29"/><path d="m58.45 41.39a.28.28 0 0 0 .28.28h11.12a.28.28 0 0 0 .28-.28v-6.65h-11.68zm4.55-2.87.66-2.11a.09.09 0 0 1 .08-.06h1a.09.09 0 0 1 .07 0 .09.09 0 0 1 0 .07l-.4 1.24h1.13a.1.1 0 0 1 .07.14l-1.51 2.37a.07.07 0 0 1 -.07 0 .11.11 0 0 1 -.06-.1l.25-1.48h-1.22a.1.1 0 0 1 -.07 0 .09.09 0 0 1 0-.07zm0 0" fill="none" stroke="#12100b" stroke-miterlimit="10" stroke-width=".29"/><path d="m71.53 20.59h-2.08v-.66a.21.21 0 0 0 -.21-.22h-1.49a.22.22 0 0 0 -.22.22v.66h-5.1v-.66a.22.22 0 0 0 -.22-.22h-1.48a.22.22 0 0 0 -.22.22v.66h-2.07a.21.21 0 0 0 -.22.21v1.39a.21.21 0 0 0 .22.21h13.09a.21.21 0 0 0 .22-.21v-1.39a.21.21 0 0 0 -.22-.21zm0 0" fill="#e96c0f"/><path d="m59.14 29.79a.29.29 0 0 0 .28.28h11.12a.29.29 0 0 0 .29-.28v-6.65h-11.69zm4.51-2.87.66-2.11a.1.1 0 0 1 .08-.06h1a.1.1 0 0 1 .07 0 .08.08 0 0 1 0 .08l-.4 1.23h1.13a.1.1 0 0 1 .08 0 .1.1 0 0 1 0 .09l-1.5 2.34a.11.11 0 0 1 -.08 0 .09.09 0 0 1 0-.1l.19-1.39h-1.14a.07.07 0 0 1 -.07 0 .07.07 0 0 1 0-.07zm0 0" fill="#e96c0f"/><path d="m70.84 20.59h-2.08v-.66a.22.22 0 0 0 -.22-.22h-1.48a.22.22 0 0 0 -.22.22v.66h-5.1v-.66a.22.22 0 0 0 -.22-.22h-1.52a.22.22 0 0 0 -.22.22v.66h-2.04a.21.21 0 0 0 -.21.21v1.39a.21.21 0 0 0 .21.21h13.1a.21.21 0 0 0 .21-.21v-1.39a.21.21 0 0 0 -.21-.21zm0 0" fill="none" stroke="#12100b" stroke-miterlimit="10" stroke-width=".29"/><path d="m58.45 29.79a.28.28 0 0 0 .28.28h11.12a.28.28 0 0 0 .28-.28v-6.65h-11.68zm4.55-2.87.66-2.11a.09.09 0 0 1 .08-.06h1a.13.13 0 0 1 .07 0 .11.11 0 0 1 0 .08l-.4 1.23h1.13a.1.1 0 0 1 .07.14l-1.51 2.38a.08.08 0 0 1 -.07 0 .11.11 0 0 1 -.06-.1l.22-1.48h-1.19a.08.08 0 0 1 0 0 .09.09 0 0 1 0-.07zm0 0" fill="none" stroke="#12100b" stroke-miterlimit="10" stroke-width=".29"/></svg>