<svg viewBox="0 0 85.04 85.04" xmlns="http://www.w3.org/2000/svg" xmlns:xlink="http://www.w3.org/1999/xlink"><clipPath id="a"><path d="m16.44 7.84h52.16v69.36h-52.16z"/></clipPath><path d="m42.46 28.91a4.85 4.85 0 0 1 1 .1l.24-.14v-7.33a11.42 11.42 0 0 0 -2.48 0v7.33l.24.14a4.78 4.78 0 0 1 1-.1zm0 0"/><path d="m31.18 28.77 6.33 3.66.28-.16a4.8 4.8 0 0 1 1-1.65v-.32l-6.33-3.66a12.59 12.59 0 0 0 -1.24 2.13zm0 0"/><g clip-path="url(#a)"><path d="m38.75 27.43v-5.38a12.36 12.36 0 0 0 -4.65 2.7zm0 0"/><path d="m68.46 33.86a26 26 0 1 0 -46.41 16.14h8.95a19.81 19.81 0 1 1 23 0h8.92a26.05 26.05 0 0 0 5.58-16.1zm-36.23-18.93a23.28 23.28 0 0 0 -7.36 6.07 1.24 1.24 0 1 1 -2-1.49 25.72 25.72 0 0 1 8.13-6.75 1.24 1.24 0 1 1 1.19 2.18zm4-2.12a1.24 1.24 0 1 1 1.24-1.24 1.24 1.24 0 0 1 -1.24 1.24zm0 0"/></g><path d="m42.46 38.81a4.78 4.78 0 0 1 -1-.1l-.24.14v7.33a12.84 12.84 0 0 0 2.48 0v-7.33l-.24-.14a4.78 4.78 0 0 1 -1 .1zm0 0"/><path d="m37.51 35.29-6.33 3.65a11.69 11.69 0 0 0 1.24 2.14l6.33-3.66v-.32a4.8 4.8 0 0 1 -1-1.65zm0 0"/><path d="m44.94 33.86a2.48 2.48 0 1 1 -2.48-2.48 2.48 2.48 0 0 1 2.48 2.48zm0 0" fill="#37a9e1"/><path d="m30.38 31.17a12.21 12.21 0 0 0 0 5.38l4.62-2.69zm0 0"/><path d="m38.75 45.67v-5.39l-4.65 2.72a12.36 12.36 0 0 0 4.65 2.7zm0 0"/><path d="m52.37 73.49h-35.74a5 5 0 0 0 4.78 3.71h42.1a5 5 0 0 0 4.78-3.71h-11a1.24 1.24 0 0 1 0-2.48h11.17v-2.48h-52v2.47h35.91a1.24 1.24 0 0 1 0 2.48zm0 0"/><path d="m16.45 63.58h52.01v2.48h-52.01z"/><path d="m42.46 16.52a17.33 17.33 0 0 0 -6.41 33.48h12.82a17.33 17.33 0 0 0 -6.41-33.44zm13.91 22.48a15 15 0 0 1 -2.53 4.37 2.39 2.39 0 0 1 -.22.23 14.78 14.78 0 0 1 -8.62 4.89 13.73 13.73 0 0 1 -4.95 0 14.75 14.75 0 0 1 -8.67-4.85 1.58 1.58 0 0 1 -.22-.23 14.81 14.81 0 0 1 -2.6-4.41 1 1 0 0 1 0-.1 14.53 14.53 0 0 1 0-10.15s0-.07 0-.1a14.85 14.85 0 0 1 11.44-9.42 13.72 13.72 0 0 1 4.95 0 14.85 14.85 0 0 1 11.42 9.45s0 .07 0 .1a14.64 14.64 0 0 1 0 10.15 1 1 0 0 1 0 .1zm0 0" fill="#37a9e1"/><path d="m46.17 22.05v5.38l4.65-2.68a12.36 12.36 0 0 0 -4.65-2.7zm0 0"/><path d="m49.89 33.86 4.66 2.69a12.21 12.21 0 0 0 0-5.38zm0 0"/><path d="m26.36 58.63h-9.91v2.47h52v-2.47h-37.14a1.24 1.24 0 0 1 0-2.48h37a5 5 0 0 0 -4.78-3.72h-42.12a5 5 0 0 0 -4.78 3.72h9.73a1.24 1.24 0 1 1 0 2.48zm0 0"/><path d="m46.17 45.67a12.36 12.36 0 0 0 4.65-2.67l-4.65-2.69zm0 0"/><path d="m47.13 35.45a4.8 4.8 0 0 1 -1 1.65v.32l6.33 3.66a13 13 0 0 0 1.24-2.14l-6.33-3.65zm0 0"/><path d="m47.41 32.43 6.33-3.66a12 12 0 0 0 -1.24-2.13l-6.33 3.66v.32a4.8 4.8 0 0 1 1 1.65zm0 0"/></svg>