<svg viewBox="0 0 85.04 85.04" xmlns="http://www.w3.org/2000/svg"><circle cx="41.66" cy="45.09" fill="#d6ece8" r="22.99"/><g fill="#fff"><path d="m49.31 19.26 2.46-.85 2.87 1.82 2.3 2.95-.77 2.92z"/><path d="m31.1 38.18-3.16.33-15.69 15.58.09 2.12 5.14 6.03 2.24.93 1.9-.34 14.48-14.03 1.14-1.62v-2.09z"/><path d="m60.49 56.21v14.28l3.06 4.18 2.69-4.18v-3.46"/><path d="m55.21 51.76a46.26 46.26 0 0 1 15.7-.09 2.22 2.22 0 0 1 1.86 2.47c0 .34-.12.7-.21 1.06a2.23 2.23 0 0 1 -2.73 1.6 25.9 25.9 0 0 0 -13.52.25 2.19 2.19 0 0 1 -2.46-.85 3.79 3.79 0 0 1 -.43-2.6 2.19 2.19 0 0 1 1.79-1.84z"/><path d="m40.61 12.89a1.71 1.71 0 0 0 -.82-.65 17.33 17.33 0 0 0 -11.9-1.38 3.26 3.26 0 0 0 -2.74 3.35 3.18 3.18 0 0 0 3 3.09 19.18 19.18 0 0 1 10 4.35c-.86 1-1.74 2-2.55 3a3.63 3.63 0 0 0 0 4.86c.51.62 1.07 1.2 1.73 1.93-2.13 2.11-4.2 4.14-6.23 6.19a1.75 1.75 0 0 1 -1.51.61 4 4 0 0 0 -3 1.17c-4.59 4.2-8.98 8.59-13.16 13.16a4 4 0 0 0 -.14 5.56 24.86 24.86 0 0 0 3.55 3.63c2.39 2 4.29 1.93 6.54-.18q6.33-5.92 12.27-12.27a4.64 4.64 0 0 0 1.56-3.81.9.9 0 0 1 .29-.82l6.5-6.58 1.91 1.69a3.79 3.79 0 0 0 3.2 1 1.63 1.63 0 0 1 1.94 2.21 2.25 2.25 0 0 0 0 1.36 8.06 8.06 0 0 0 4.5 4.64 3 3 0 0 0 3.24-.7 93.74 93.74 0 0 0 7.51-7.54 3.36 3.36 0 0 0 0-4.53 25.49 25.49 0 0 0 -2.24-2.23 3.65 3.65 0 0 0 -3.43-.89 1.54 1.54 0 0 1 -1.88-1.81 3.86 3.86 0 0 0 -.94-3.3c-.57-.62-1.11-1.26-1.64-1.88 1.25-2 1.12-3.22-.45-4.79l-1.47-1.47c-1.72-1.72-2.84-1.86-4.94-.58-1.79-1.5-3.47-3.14-5.38-4.51a2.45 2.45 0 0 0 -.76-.43"/><path d="m49.31 19.26 6.86 6.84"/><path d="m30.18 38.18 7.06 6.91"/><path d="m49.97 40.79 8.82-8.81"/><path d="m49.31 52.04-6.79-1.15"/><path d="m49.97 56.61-5.96 3.09"/><path d="m52.74 61.72-4.05 4.56"/></g><path d="m48.31 19.26 2.46-.85 2.87 1.82 2.3 2.95-.77 2.92z" fill="#e96c0f"/><path d="m30.1 38.18-3.16.33-15.69 15.58.09 2.12 5.14 6.03 2.24.93 1.9-.34 14.48-14.03 1.14-1.62v-2.09z" fill="#37a9e1"/><g fill="none" stroke="#1b1a17" stroke-miterlimit="10"><path d="m59.49 56.21v14.28l3.06 4.18 2.69-4.18v-3.46" stroke-linecap="round" stroke-width=".5"/><path d="m54.21 51.76a46.26 46.26 0 0 1 15.7-.09 2.22 2.22 0 0 1 1.86 2.47c0 .34-.12.7-.21 1.06a2.23 2.23 0 0 1 -2.73 1.6 25.9 25.9 0 0 0 -13.52.25 2.19 2.19 0 0 1 -2.46-.85 3.79 3.79 0 0 1 -.43-2.6 2.19 2.19 0 0 1 1.79-1.84z" stroke-linecap="round" stroke-width=".5"/><path d="m39.61 12.89a1.71 1.71 0 0 0 -.82-.65 17.33 17.33 0 0 0 -11.9-1.38 3.26 3.26 0 0 0 -2.74 3.35 3.18 3.18 0 0 0 3 3.09 19.18 19.18 0 0 1 10 4.35c-.86 1-1.74 2-2.55 3a3.63 3.63 0 0 0 0 4.86c.51.62 1.07 1.2 1.73 1.93-2.13 2.11-4.2 4.14-6.23 6.19a1.75 1.75 0 0 1 -1.51.61 4 4 0 0 0 -3 1.17c-4.59 4.2-8.98 8.59-13.16 13.16a4 4 0 0 0 -.14 5.56 24.86 24.86 0 0 0 3.55 3.63c2.39 2 4.29 1.93 6.54-.18q6.33-5.92 12.27-12.27a4.64 4.64 0 0 0 1.56-3.81.9.9 0 0 1 .29-.82l6.5-6.58 1.91 1.69a3.79 3.79 0 0 0 3.2 1 1.63 1.63 0 0 1 1.94 2.21 2.25 2.25 0 0 0 0 1.36 8.06 8.06 0 0 0 4.5 4.64 3 3 0 0 0 3.24-.7 93.74 93.74 0 0 0 7.51-7.54 3.36 3.36 0 0 0 0-4.53 25.49 25.49 0 0 0 -2.24-2.23 3.65 3.65 0 0 0 -3.43-.89 1.54 1.54 0 0 1 -1.88-1.81 3.86 3.86 0 0 0 -.94-3.3c-.57-.62-1.11-1.26-1.64-1.88 1.25-2 1.12-3.22-.45-4.79l-1.47-1.47c-1.72-1.72-2.84-1.86-4.94-.58-1.79-1.5-3.47-3.14-5.38-4.51a2.45 2.45 0 0 0 -.76-.43" stroke-linecap="round" stroke-width=".75"/><path d="m48.31 19.26 6.86 6.84" stroke-width=".75"/><path d="m29.18 38.18 7.06 6.91" stroke-width=".75"/><path d="m48.97 40.79 8.82-8.81" stroke-width=".75"/><g stroke-linecap="round"><path d="m65.24 63.19v-6.98" stroke-width=".5"/><path d="m48.31 52.04-6.79-1.15" stroke-width=".5"/><path d="m48.97 56.61-5.96 3.09" stroke-width=".5"/><path d="m51.74 61.72-4.05 4.56" stroke-width=".5"/></g></g></svg>