<svg viewBox="0 0 85.04 85.04" xmlns="http://www.w3.org/2000/svg" xmlns:xlink="http://www.w3.org/1999/xlink"><clipPath id="a"><path d="m10.81 7.82h67.28v67.28h-67.28z"/></clipPath><path d="m28.77 9.13h5.78v40.47h-5.78z" fill="#37a9e1"/><path d="m16.94 56.47v-3.47a3.39 3.39 0 0 1 3.39-3.39h22.67a3.4 3.4 0 0 1 3.38 3.39v3.47zm0 0" fill="#e96c0f"/><path d="m28.99 42.47h5.34v7.14h-5.34z" fill="#fff"/><g clip-path="url(#a)"><path d="m12.12 73.79a33.34 33.34 0 0 0 4.82-17.32h29.44a33.34 33.34 0 0 1 -4.82 17.32zm0 0" fill="none"/></g><g fill="none" stroke="#000" stroke-linecap="round" stroke-miterlimit="10" stroke-width=".5"><path d="m34.42 20.43v-10.6a.7.7 0 0 0 -.7-.7h-4.38a.7.7 0 0 0 -.7.7v39.78h-8.33a3.24 3.24 0 0 0 -3.24 3.39 39.67 39.67 0 0 1 -5.07 20.79h29.43c3.17-6.25 4.21-16.69 4.57-21.54a2.47 2.47 0 0 0 -2.46-2.64h-9.12v-17.79"/><path d="m34.2 42.47h-5.56"/><path d="m17.04 56.47h28.44"/><path d="m25.6 64.57a21.24 21.24 0 0 1 -3.6 9.22"/><path d="m35.24 64.57a21.24 21.24 0 0 1 -3.58 9.22"/></g><path d="m48.52 46.83a5 5 0 0 1 -.11-1 4.87 4.87 0 0 1 9.73 0 4.17 4.17 0 0 1 0 .61" fill="#d6ece8"/><path d="m47.38 62a5.57 5.57 0 0 1 .72-.74 4.86 4.86 0 0 1 6.21 7.49 4 4 0 0 1 -.49.35" fill="#d6ece8"/><path d="m48.52 46a5 5 0 0 1 -.11-1 4.87 4.87 0 0 1 9.73 0 3.94 3.94 0 0 1 0 .6" fill="none" stroke="#000" stroke-linecap="round" stroke-miterlimit="10" stroke-width=".5"/><path d="m48.44 60.34a4.63 4.63 0 0 1 .86-.58 4.86 4.86 0 1 1 4.57 8.58 3.87 3.87 0 0 1 -.55.25" fill="none" stroke="#000" stroke-linecap="round" stroke-miterlimit="10" stroke-width=".5"/><path d="m64.69 59.56a6.68 6.68 0 0 1 1.41.44 6.93 6.93 0 1 1 -6 12.45l-4.6-22a7 7 0 0 1 .92-1.06 6.61 6.61 0 0 1 9 9.7 6.32 6.32 0 0 1 -.64.52" fill="#d6ece8"/><g fill="none" stroke="#000" stroke-linecap="round" stroke-miterlimit="10" stroke-width=".5"><path d="m58.33 50.44a7.68 7.68 0 0 1 .93-1.06 6.61 6.61 0 0 1 9 9.7 7.67 7.67 0 0 1 -.64.52"/><path d="m67.55 59.56a6.77 6.77 0 0 1 1.45.44 6.93 6.93 0 1 1 -6 12.45"/></g></svg>