<svg viewBox="0 0 85.04 85.04" xmlns="http://www.w3.org/2000/svg"><path d="m23 35.35c-.22.33-4.88 7.53-5 8.26a4.59 4.59 0 0 0 .68 2.84c.85 1.61 1.49 1.52 2.36 3.14.71 1.32 1.15 2.66.24 4a8.31 8.31 0 0 1 -2.09 2c-4.1 3-9.89 6-10.7 11.57a7.15 7.15 0 0 0 1 5.3c2.31 3.35 6.47 3.23 9.66 1.24a17.43 17.43 0 0 0 6.18-6.88c1-2 2.42-5 4.95-5.35 1.29-.16 2.54.73 4.9 2.46 1.74 1.27 3.23 2 5.41 1.08a13.28 13.28 0 0 0 6.08-6" fill="#d6ece8"/><path d="m54.25 25.75a46.06 46.06 0 0 1 10.64 3.49c2.33 1.08 4.82 2.75 5.58 5.34.37 1.26-.19 2.71.38 3.75.68 1.27 2.05 2.37 2.86 3.62 4 6.15 6 15.33 2 22-1.82 3.07-5.63 5-8.89 2.83a5.83 5.83 0 0 1 -2.39-5.93c.6-2.83 3.11-4.78 3.71-7.62a7.73 7.73 0 0 0 -1-6.06" fill="#e96c0f"/><path d="m25.79 31.67 12.04-18.67c16.78 7.84 26.1 18.47 30.72 30.84l-18.34 10.92z" fill="#d6ece8"/><path d="m24.19 32.44-.52.48a1.54 1.54 0 0 0 -.05 2.23l22.11 22.33a1.53 1.53 0 0 0 2.1.08l.62-.54a1.54 1.54 0 0 0 .07-2.24l-22.18-22.3a1.55 1.55 0 0 0 -2.15-.04z" fill="#37a9e1"/><g fill="none" stroke="#211f1d" stroke-miterlimit="10" stroke-width=".5"><path d="m23 35.35a1.9 1.9 0 0 1 0-2.68l.71-.71a1.9 1.9 0 0 1 2.68 0l11.13-17.6c13.61 4.71 23.48 14.78 29.85 29.73l-18.14 10.68a2 2 0 0 1 -.23 2.74l-.61.54a2 2 0 0 1 -2.7-.08z"/><path d="m26.43 31.96 22.8 22.8"/><path d="m36.86 29.06-6.21 7.13"/><path d="m40.3 36.45-4.69 4.69"/><path d="m44.93 41.62-4.42 4.42"/><path d="m52.68 44.87-7.52 5.82"/><path d="m17.69 41a3.66 3.66 0 0 0 -.63 1.6 4.59 4.59 0 0 0 .68 2.84c.85 1.61 1.49 1.52 2.36 3.14.71 1.32 1.15 2.66.24 4a8.31 8.31 0 0 1 -2.09 2c-4.1 3-9.89 6-10.7 11.57a7.15 7.15 0 0 0 1 5.3c2.31 3.35 6.47 3.23 9.66 1.24a17.43 17.43 0 0 0 6.18-6.88c1-2 2.42-5 4.95-5.35 1.29-.16 2.54.73 4.9 2.46 1.74 1.27 3.23 2 5.41 1.08a13.28 13.28 0 0 0 6.08-6"/><circle cx="13.95" cy="67.52" r="2.23"/><path d="m53.1 23.44a45.38 45.38 0 0 1 10.63 3.5c2.34 1.07 4.82 2.74 5.59 5.34.37 1.25-.19 2.7.37 3.75.69 1.27 2.06 2.37 2.87 3.61 4 6.16 6 15.33 2 22-1.82 3.07-5.63 5-8.89 2.84a5.85 5.85 0 0 1 -2.4-5.93c.61-2.83 3.12-4.79 3.72-7.62a7.69 7.69 0 0 0 -1-6.06"/></g></svg>