<svg viewBox="0 0 85.04 85.04" xmlns="http://www.w3.org/2000/svg"><path d="m62.93 24.82v-2.22a2.21 2.21 0 0 0 2.22-2.21v-5.53h2.21v5.53a4.43 4.43 0 0 1 -4.43 4.43zm0 0" fill="#bad7d2"/><path d="m35.28 19.26h.21a3.32 3.32 0 1 1 6.21 0h.21a3.35 3.35 0 0 1 2.78 1.48 3.31 3.31 0 0 1 .31 3.14 3.27 3.27 0 0 1 -2.46 2 3.31 3.31 0 0 1 -3-1 4.42 4.42 0 1 1 -4.24-5.61zm0 0" fill="#87cfea"/><path d="m61.83 70.18 2.17-28.77h-39.79l2.21 28.77zm0 0" fill="#d6ece8"/><path d="m22 34.78h22.13v6.64h-22.13z" fill="#37a9e1"/><path d="m57.4 34.78h8.85v6.64h-8.85z" fill="#37a9e1"/><path d="m44.13 34.78h13.28v17.7h-13.28z" fill="#bad7d2"/><path d="m51.87 41.41h2.21v11.06h-2.21z" fill="#d6ece8"/><path d="m47.45 45.84h2.21v6.64h-2.21z" fill="#d6ece8"/><g fill="#1a5d86"><path d="m60.72 34.78h2.21v3.32h-2.21z"/><path d="m38.59 34.78h2.21v3.32h-2.21z"/><path d="m34.17 34.78h2.21v3.32h-2.21z"/><path d="m29.74 34.78h2.21v3.32h-2.21z"/><path d="m25.32 34.78h2.21v3.32h-2.21z"/></g><g fill="#d6ece8"><path d="m50.76 20.39h8.85v4.43h-8.85z"/><path d="m66.25 17.07 4.43-1.07v-4.46l-4.43-1.11zm0 0"/><path d="m55.19 10.43h11.06v6.64h-3.32l-3.31 3.32h-8.86v-3.32h-4.42c0-3.66 4.42-6.64 8.85-6.64zm0 0"/></g><path d="m48.55 34.78h13.28l-2.21-10h-8.86zm0 0" fill="#e96c0f"/><path d="m27.53 28.14a2.22 2.22 0 1 1 -2.21-2.22 2.21 2.21 0 0 1 2.21 2.22zm0 0" fill="#60afe2"/><path d="m22 19.29a3.32 3.32 0 1 1 -3.32-3.29 3.32 3.32 0 0 1 3.32 3.29zm0 0" fill="#60afe2"/><path d="m29.74 12.65a2.21 2.21 0 1 1 -2.21-2.22 2.21 2.21 0 0 1 2.21 2.22zm0 0" fill="#60afe2"/><path d="m61.83 70.18h-35.41a4.7 4.7 0 0 0 4.43 4.42h26.55a4.7 4.7 0 0 0 4.43-4.42zm0 0" fill="#37a9e1"/><path d="m34.17 66.86h-3.32a1.11 1.11 0 0 1 -1.1-1l-1.1-8.86 2.19-.27 1 7.88h2.34zm0 0" fill="#f4f4e6"/><path d="m36.38 64.65h2.21v2.21h-2.21z" fill="#f4f4e6"/><path d="m40.81 64.65h2.21v2.21h-2.21z" fill="#f4f4e6"/><g fill="none" stroke="#12100b" stroke-miterlimit="10" stroke-width=".25"><path d="m61.93 24.82v-2.22a2.21 2.21 0 0 0 2.22-2.21v-5.53h2.21v5.53a4.43 4.43 0 0 1 -4.43 4.43zm0 0"/><path d="m34.28 19.26h.21a3.32 3.32 0 1 1 6.21 0h.21a3.35 3.35 0 0 1 2.78 1.48 3.31 3.31 0 0 1 .31 3.14 3.27 3.27 0 0 1 -2.46 2 3.31 3.31 0 0 1 -3-1 4.42 4.42 0 1 1 -4.24-5.61zm0 0"/><path d="m60.83 70.18 2.17-28.77h-39.79l2.21 28.77zm0 0"/><path d="m21 34.78h22.13v6.64h-22.13z"/><path d="m56.4 34.78h8.85v6.64h-8.85z"/><path d="m43.13 34.78h13.28v17.7h-13.28z"/><path d="m50.87 41.41h2.21v11.06h-2.21z"/><path d="m46.45 45.84h2.21v6.64h-2.21z"/><path d="m59.72 34.78h2.21v3.32h-2.21z"/><path d="m37.59 34.78h2.21v3.32h-2.21z"/><path d="m33.17 34.78h2.21v3.32h-2.21z"/><path d="m28.74 34.78h2.21v3.32h-2.21z"/><path d="m24.32 34.78h2.21v3.32h-2.21z"/><path d="m49.76 20.39h8.85v4.43h-8.85z"/><path d="m65.25 17.07 4.43-1.07v-4.46l-4.43-1.11zm0 0"/><path d="m54.19 10.43h11.06v6.64h-3.32l-3.31 3.32h-8.86v-3.32h-4.42c0-3.66 4.42-6.64 8.85-6.64zm0 0"/><path d="m47.55 34.78h13.28l-2.21-10h-8.86zm0 0"/><path d="m26.53 28.14a2.22 2.22 0 1 1 -2.21-2.22 2.21 2.21 0 0 1 2.21 2.22zm0 0"/><path d="m21 19.29a3.32 3.32 0 1 1 -3.32-3.29 3.32 3.32 0 0 1 3.32 3.29zm0 0"/><path d="m28.74 12.65a2.21 2.21 0 1 1 -2.21-2.22 2.21 2.21 0 0 1 2.21 2.22zm0 0"/><path d="m60.83 70.18h-35.41a4.7 4.7 0 0 0 4.43 4.42h26.55a4.7 4.7 0 0 0 4.43-4.42zm0 0"/><path d="m33.17 66.86h-3.32a1.11 1.11 0 0 1 -1.1-1l-1.1-8.86 2.19-.27 1 7.88h2.34zm0 0"/><path d="m35.38 64.65h2.21v2.21h-2.21z"/><path d="m39.81 64.65h2.21v2.21h-2.21z"/></g></svg>