<svg viewBox="0 0 85.04 85.04" xmlns="http://www.w3.org/2000/svg"><path d="m64.59 32.34a25.11 25.11 0 1 1 -25.11-25.11 25.11 25.11 0 0 1 25.11 25.11zm0 0" fill="#e5efef"/><path d="m61.32 73.83h-39.32v-9a10.26 10.26 0 0 1 6-9.34l13.71-6.23 13.71 6.23a10.26 10.26 0 0 1 6 9.36zm0 0" fill="#e96c0f"/><path d="m60.32 73.83h-39.32v-9a10.26 10.26 0 0 1 6-9.34l13.71-6.23 13.71 6.23a10.26 10.26 0 0 1 6 9.36zm0 0" fill="none" stroke="#12100b" stroke-miterlimit="10" stroke-width=".25"/><path d="m41.66 55.27a4.37 4.37 0 0 1 -4.36-4.37v-2.18h8.7v2.18a4.37 4.37 0 0 1 -4.37 4.37zm0 0" fill="#e8d2c5"/><path d="m55.86 32.88a6.3 6.3 0 0 1 -.08-1.72 3.42 3.42 0 0 0 -2.58-3.38 43.71 43.71 0 0 0 -23 .74 2.26 2.26 0 0 0 -1.56 2.23 8.6 8.6 0 0 1 -.07 2.13 2.68 2.68 0 0 0 -1.43 5 2.42 2.42 0 0 0 2.3.33 15.2 15.2 0 0 0 10.2 11.39 7.63 7.63 0 0 0 4.68-.05l.49-.16a15.16 15.16 0 0 0 10.19-11.21 2.53 2.53 0 0 0 2.29-.26 2.77 2.77 0 0 0 1.33-2 2.74 2.74 0 0 0 -2.71-3.08zm0 0" fill="#e8d2c5"/><path d="m54.86 32.88a6.3 6.3 0 0 1 -.08-1.72 3.42 3.42 0 0 0 -2.58-3.38 43.71 43.71 0 0 0 -23 .74 2.26 2.26 0 0 0 -1.56 2.23 8.6 8.6 0 0 1 -.07 2.13 2.68 2.68 0 0 0 -1.43 5 2.42 2.42 0 0 0 2.3.33 15.2 15.2 0 0 0 10.2 11.39 7.63 7.63 0 0 0 4.68-.05l.49-.16a15.16 15.16 0 0 0 10.19-11.21 2.53 2.53 0 0 0 2.29-.26 2.77 2.77 0 0 0 1.33-2 2.74 2.74 0 0 0 -2.71-3.08zm0 0" fill="none" stroke="#12100b" stroke-miterlimit="10" stroke-width=".25"/><path d="m48.76 37.25a1.09 1.09 0 1 1 -1.09-1.09 1.09 1.09 0 0 1 1.09 1.09zm0 0" fill="#4d251e"/><path d="m37.84 37.25a1.09 1.09 0 1 1 -1.09-1.09 1.09 1.09 0 0 1 1.09 1.09zm0 0" fill="#4d251e"/><path d="m35.11 28c2.46 2.8 12 9.83 20.75 4.37 0-1.09 0-.62 0-1.09a3.61 3.61 0 0 0 -2.62-3.46c-4.56-1.12-14.85-2-18.13.18zm0 0" fill="#6c505c"/><path d="m37 28.31c3.07 2.67 10.65 7.4 17.74 3.41v-.49a2.53 2.53 0 0 0 -1.74-2.38c-4.43-1.09-12.25-1.64-16-.54zm0 0" fill="none" stroke="#12100b" stroke-miterlimit="10" stroke-width=".25"/><path d="m27.47 26.88h28.39v-1.64a13.66 13.66 0 0 0 -13.65-13.65h-1.09a13.66 13.66 0 0 0 -13.65 13.65zm0 0"/><path d="m26.47 26.88h28.39v-1.64a13.66 13.66 0 0 0 -13.65-13.65h-1.09a13.66 13.66 0 0 0 -13.65 13.65zm0 0" fill="none" stroke="#12100b" stroke-miterlimit="10" stroke-width=".25"/><path d="m29.73 32.31c2.49-.66 5-3.06 6.63-5a44.28 44.28 0 0 0 -5.23 1.27 2.05 2.05 0 0 0 -1.42 2v1.71zm0 0" fill="#6c505c"/><path d="m29.73 32.31c2.49-.66 5-3.06 6.63-5a44.28 44.28 0 0 0 -5.23 1.27 2.05 2.05 0 0 0 -1.42 2v1.71zm0 0" fill="none" stroke="#12100b" stroke-miterlimit="10" stroke-width=".25"/><path d="m27.47 26.88a1.09 1.09 0 0 0 0 2.18h28.39a1.09 1.09 0 1 0 0-2.18zm0 0" fill="#d6ece8"/><path d="m27.47 26.88a1.09 1.09 0 0 0 0 2.18h28.39a1.09 1.09 0 1 0 0-2.18zm0 0" fill="none" stroke="#12100b" stroke-miterlimit="10" stroke-width=".25"/><path d="m71.17 14.32-7.08 11h3.91l-3.12 8.68 7.86-11h-3.15zm0 0" fill="#e96c0f"/><path d="m72.17 14.32-7.08 11h3.91l-3.12 8.68 7.86-11h-3.15zm0 0" fill="none" stroke="#12100b" stroke-miterlimit="10" stroke-width=".25"/><path d="m23.37 45.42a5.73 5.73 0 0 0 -11.45 0 5.46 5.46 0 0 0 1.9 4.14 3.53 3.53 0 0 1 1.12 2.31l.25 2.31h4.91l.24-2.31a3.54 3.54 0 0 1 1.13-2.31 5.5 5.5 0 0 0 1.9-4.14zm0 0" fill="#d6ece8"/><path d="m22.37 45.42a5.73 5.73 0 0 0 -11.45 0 5.46 5.46 0 0 0 1.9 4.14 3.53 3.53 0 0 1 1.12 2.31l.25 2.31h4.91l.24-2.31a3.54 3.54 0 0 1 1.13-2.31 5.5 5.5 0 0 0 1.9-4.14zm0 0" fill="none" stroke="#12100b" stroke-miterlimit="10" stroke-width=".25"/><path d="m14.37 55.27v1.09c0 .6 1 1.09 2.18 1.09s2.18-.49 2.18-1.09v-1.09zm0 0" fill="none" stroke="#12100b" stroke-miterlimit="10" stroke-width=".25"/><path d="m71.14 73.83a3.28 3.28 0 0 1 -3.27-3.28v-13.1h6.55v13.1a3.28 3.28 0 0 1 -3.28 3.28zm0 0"/><path d="m70.05 37.8h2.19l2.18 5.46-3.26 3.26-3.29-3.26zm0 0" fill="#b4a19c"/><path d="m72.14 73.83a3.28 3.28 0 0 1 -3.27-3.28v-13.1h6.55v13.1a3.28 3.28 0 0 1 -3.28 3.28zm0 0" fill="none" stroke="#12100b" stroke-miterlimit="10" stroke-width=".25"/><path d="m71.05 37.8h2.19l2.18 5.46-3.26 3.26-3.29-3.26zm0 0" fill="none" stroke="#12100b" stroke-miterlimit="10" stroke-width=".25"/><path d="m46 51.23a4.36 4.36 0 0 1 -4.34 4l5.46 7.64 4-9.36zm0 0" fill="#d6ece8"/><path d="m41.66 55.27a4.35 4.35 0 0 1 -4.33-4l-5.09 2.32 4 9.36zm0 0" fill="#d6ece8"/><g fill="none" stroke="#12100b" stroke-miterlimit="10" stroke-width=".25"><path d="m46 51.23a4.36 4.36 0 0 1 -4.34 4l5.46 7.64 4-9.36zm0 0"/><path d="m41.66 55.27a4.35 4.35 0 0 1 -4.33-4l-5.09 2.32 4 9.36zm0 0"/><path d="m72.16 46.52v10.22"/></g><path d="m16.64 53.75v-3.29l1-1.2" stroke-linecap="round"/><path d="m41.53 16.21-2.28 3.24h2.64l-2.64 2.81"/><path d="m15.5 49.26 1.14 1.2"/></svg>