<svg xmlns="http://www.w3.org/2000/svg" xmlns:se="http://svg-edit.googlecode.com" xmlns:svg="http://www.w3.org/2000/svg" width="566.93" height="566.93"><title>Abhath lay perfect</title><g class="layer"><title>Layer 1</title><g id="Layer_1" data-name="Layer 1"><path id="svg_2" fill="#27aae1" d="m266.62,299.19a9.74,9.74 0 0 0 7,-2.92a8.34,8.34 0 0 0 2.75,-6.36a7.75,7.75 0 0 0 -2.75,-6.18a10.19,10.19 0 0 0 -13.91,-0.34a8.2,8.2 0 0 0 -2.75,6.53a8.33,8.33 0 0 0 2.75,6.36a9.34,9.34 0 0 0 6.91,2.91z" transform="translate(0 0)"/><path id="svg_3" fill="#27aae1" d="m277.52,280.81a9.74,9.74 0 0 0 7,-2.92a8.34,8.34 0 0 0 2.75,-6.36a7.75,7.75 0 0 0 -2.75,-6.18a10.19,10.19 0 0 0 -13.91,-0.34a8.2,8.2 0 0 0 -2.75,6.53a8.33,8.33 0 0 0 2.75,6.36a9.34,9.34 0 0 0 6.91,2.91z" transform="translate(0 0)"/><path id="svg_4" fill="#27aae1" d="m277.53,279.56a8.41,8.41 0 0 0 6.09,-2.52a7.2,7.2 0 0 0 2.37,-5.49a6.69,6.69 0 0 0 -2.37,-5.34a8.8,8.8 0 0 0 -12,-0.3a7.09,7.09 0 0 0 -2.37,5.64a7.2,7.2 0 0 0 2.35,5.45a8.07,8.07 0 0 0 5.93,2.56z" transform="translate(0 0)"/><path id="svg_5" fill="#27aae1" d="m279.5,289.91a8.34,8.34 0 0 0 2.75,6.36a9.35,9.35 0 0 0 6.87,2.92a9.25,9.25 0 0 0 6.7,-2.92a8.51,8.51 0 0 0 2.92,-6.36a8.35,8.35 0 0 0 -2.92,-6.53a10.58,10.58 0 0 0 -6.87,-2.58a9.25,9.25 0 0 0 -6.7,2.92a7.75,7.75 0 0 0 -2.75,6.19z" transform="translate(0 0)"/><rect id="svg_6" width="18.99" height="137.54" x="479.23" y="211.26" fill="#27aae1" rx="9.49" ry="9.49"/><path id="svg_7" fill="#27aae1" d="m222.83,263.88c-15.31,0 -27.15,5.92 -35.72,17.56l-0.22,0.33a7.74,7.74 0 0 1 6.81,1.13a11.73,11.73 0 0 1 5.05,9.79l0,10.59c0,1.05 0,2.07 0.1,3.06c0.35,-5.93 1.71,-10.73 4,-13.88a20.93,20.93 0 0 1 12.66,-8.57c1.55,-0.33 2.93,-0.54 10.07,-0.67a9.66,9.66 0 0 0 9.5,-9.67l0,0a9.67,9.67 0 0 0 -9.67,-9.67l-2.55,0l-0.03,0z" transform="translate(0 0)"/><path id="svg_8" fill="#27aae1" d="m457.49,266.18a9.49,9.49 0 0 0 -9.49,9.49l0,53.94l-17.28,0a9.49,9.49 0 0 1 -9.49,-9.49l0,-10.87c0,-15.11 -5.92,-27.15 -17.56,-35.31a32.39,32.39 0 0 0 -15.11,-6.74c-3.06,-0.82 -8.57,-1 -16.33,-1l-7.55,0a9.59,9.59 0 0 0 0,19.19l10.82,0c7.76,0 13.27,1.43 17.56,4.49a18.75,18.75 0 0 1 7.76,12c0.82,2.86 1.23,11.89 1.23,19.24l0,-1c0,2.4 0,9.58 0,9.58s-6.67,-0.09 -9.51,-0.09l-54.79,0l0,-53.84a9.59,9.59 0 1 0 -19.19,0l0,53.84l-87.77,0c-7.35,0 -12.45,-0.2 -15.31,-0.82a20.93,20.93 0 0 1 -12.66,-8.57c-2.27,-3.15 -3.64,-8 -4,-13.88c-0.06,1 -0.1,2 -0.1,3.06l0,12.35a9.38,9.38 0 0 1 -11.86,9.16l0.22,0.33c8.57,11.64 20.41,17.56 35.72,17.56l234.69,0a9.49,9.49 0 0 0 9.49,-9.49l0,-63.64a9.49,9.49 0 0 0 -9.49,-9.49z" transform="translate(0 0)"/><path id="svg_9" fill="#27aae1" d="m198.74,321.75l0,-12.35c0,-1.05 0,-2.07 0.1,-3.06s-0.1,-2 -0.1,-3.06l0,-12.35a9.38,9.38 0 0 0 -11.86,-9.16a36.75,36.75 0 0 0 -6.31,14.57a67,67 0 0 0 0,20a36.75,36.75 0 0 0 6.31,14.57a9.38,9.38 0 0 0 11.86,-9.16z" transform="translate(0 0)"/><path id="svg_10" fill="#27aae1" d="m447.74,378.92a8.34,8.34 0 0 0 2.75,6.36a9.35,9.35 0 0 0 6.87,2.92a9.25,9.25 0 0 0 6.7,-2.92a8.51,8.51 0 0 0 2.92,-6.36a8.35,8.35 0 0 0 -2.92,-6.53a10.58,10.58 0 0 0 -6.87,-2.58a9.25,9.25 0 0 0 -6.7,2.92a7.75,7.75 0 0 0 -2.75,6.19z" transform="translate(0 0)"/><path id="svg_11" fill="#ed7323" d="m128.32,261.62l0,-64.72a10.17,10.17 0 0 0 -20.35,0l0,74.1a9.75,9.75 0 0 0 2.9,7a10,10 0 0 0 7.13,2.93l0.15,0a29.09,29.09 0 0 1 6.89,0.86l0,0a29.06,29.06 0 0 1 -3.54,57.1a28.83,28.83 0 0 1 -22.71,-7.21a29,29 0 0 1 -4.43,-38.37a10.17,10.17 0 0 0 -16.62,-11.72a49.41,49.41 0 0 0 40.53,77.83a49.42,49.42 0 0 0 10.06,-97.78l-0.01,-0.02z" transform="translate(0 0)"/><path id="svg_12" fill="#ed7323" d="m113.94,372.54a10.19,10.19 0 0 0 -13.94,-0.34a8.2,8.2 0 0 0 -2.75,6.53a8.33,8.33 0 0 0 2.75,6.36a9.34,9.34 0 0 0 6.87,2.92a9.74,9.74 0 0 0 7,-2.92a8.34,8.34 0 0 0 2.75,-6.36a7.75,7.75 0 0 0 -2.68,-6.19z" transform="translate(0 0)"/><path id="svg_13" fill="#ed7323" d="m136.09,372.2a10.58,10.58 0 0 0 -6.87,-2.58a9.25,9.25 0 0 0 -6.7,2.92a7.75,7.75 0 0 0 -2.75,6.18a8.34,8.34 0 0 0 2.75,6.36a9.35,9.35 0 0 0 6.87,2.92a9.25,9.25 0 0 0 6.7,-2.92a8.51,8.51 0 0 0 2.92,-6.36a8.35,8.35 0 0 0 -2.92,-6.52z" transform="translate(0 0)"/><path id="svg_14" fill="#27aae1" d="m352.68,275.77l0,18.36a9.87,9.87 0 0 0 8.65,10a9.6,9.6 0 0 0 10.54,-9.55l0,-18.81a9.59,9.59 0 0 0 -9.59,-9.59l0,0a9.59,9.59 0 0 0 -9.6,9.59z" transform="translate(0 0)"/></g><g id="Layer_3" data-name="Layer 3"><path id="svg_16" fill="#27aae1" d="m167.68,367.83a7.42,7.42 0 0 0 -5.44,-2c-2.59,0 -4,0.8 -4,2.19s1.29,2.23 4.1,2.41c4.15,0.27 9.41,1.2 9.41,7c0,3.88 -3.17,7.23 -9.45,7.23c-3.48,0 -7,-0.58 -10.17,-3.92l2.68,-3.88c1.56,1.74 5.13,3 7.58,3.08c2.05,0 4,-1 4,-2.63s-1.25,-2.14 -4.37,-2.32c-4.15,-0.31 -9.1,-1.83 -9.1,-6.82s5.26,-6.87 9.28,-6.87c3.43,0 6,0.67 8.56,2.9l-3.08,3.63z" transform="translate(0 0)"/><path id="svg_17" fill="#27aae1" d="m179.85,374.92c0.36,2.72 2.72,4.68 6.56,4.68c2,0 4.64,-0.76 5.89,-2.05l3.48,3.43c-2.32,2.41 -6.11,3.57 -9.46,3.57c-7.58,0 -12.09,-4.68 -12.09,-11.73c0,-6.69 4.55,-11.51 11.68,-11.51c7.36,0 12,4.55 11.11,13.6l-17.17,0.01zm12,-4.5c-0.36,-2.85 -2.59,-4.28 -5.71,-4.28c-2.94,0 -5.35,1.43 -6.15,4.28l11.86,0z" transform="translate(0 0)"/><path id="svg_18" fill="#27aae1" d="m218.65,362l5.22,0l0,22l-5.13,0l-0.27,-3.21c-1.25,2.59 -4.68,3.84 -7.14,3.88c-6.51,0 -11.33,-4 -11.33,-11.69s5,-11.55 11.46,-11.51a8.07,8.07 0 0 1 7,3.57l0.19,-3.04zm-13.2,11a6.3,6.3 0 0 0 6.51,6.69c8.56,0 8.56,-13.33 0,-13.33a6.26,6.26 0 0 0 -6.51,6.64z" transform="translate(0 0)"/><path id="svg_19" fill="#27aae1" d="m233.51,362l0.4,2.54c1.69,-2.72 4,-3.12 6.2,-3.12a8.34,8.34 0 0 1 5.66,2.1l-2.45,4.73a5.44,5.44 0 0 0 -3.92,-1.43c-2.85,0 -5.49,1.52 -5.49,5.58l0,11.6l-5.44,0l0,-22l5.04,0z" transform="translate(0 0)"/><path id="svg_20" fill="#27aae1" d="m266.69,381.16a11.31,11.31 0 0 1 -8.47,3.48c-6.38,0 -11.69,-3.84 -11.69,-11.64s5.31,-11.64 11.69,-11.64a10.44,10.44 0 0 1 7.94,3.26l-3.43,3.61a6.68,6.68 0 0 0 -4.42,-1.74a6.19,6.19 0 0 0 -6.31,6.51c0,4.19 2.85,6.42 6.24,6.42a6.61,6.61 0 0 0 4.76,-1.82l3.69,3.56z" transform="translate(0 0)"/><path id="svg_21" fill="#27aae1" d="m274.54,352.75l0,12.25a8.12,8.12 0 0 1 6.87,-3.3c6.24,0 9,4.24 9,10.7l0,11.6l-5.41,0l0,-11.58c0,-4 -2.1,-5.71 -5,-5.71c-3.21,0 -5.44,2.72 -5.44,6l0,11.29l-5.46,0l0,-31.25l5.44,0z" transform="translate(0 0)"/><path id="svg_22" fill="#27aae1" d="m305.8,384l0,-16.9l-4.1,0l0,-4.8l4.1,0l0,-1.47c0,-5.89 4,-8.61 8.38,-8.61a10.61,10.61 0 0 1 5.71,1.78l-2,4.06a6.06,6.06 0 0 0 -3.34,-1.16c-1.87,0 -3.3,1.25 -3.3,3.92l0,1.47l6.47,0l0,4.77l-6.47,0l0,16.94l-5.45,0z" transform="translate(0 0)"/><path id="svg_23" fill="#27aae1" d="m342,373c0,6.33 -4.33,11.46 -11.46,11.46s-11.42,-5.13 -11.42,-11.46s4.37,-11.46 11.37,-11.46a11.12,11.12 0 0 1 11.51,11.46zm-17.44,0c0,3.34 2,6.47 6,6.47s6,-3.12 6,-6.47s-2.32,-6.51 -6,-6.51c-3.93,0 -5.98,3.21 -5.98,6.51l-0.02,0z" transform="translate(0 0)"/><path id="svg_24" fill="#27aae1" d="m350.8,362l0.4,2.54c1.69,-2.72 4,-3.12 6.2,-3.12a8.34,8.34 0 0 1 5.66,2.1l-2.45,4.73a5.44,5.44 0 0 0 -3.92,-1.43c-2.85,0 -5.49,1.52 -5.49,5.58l0,11.6l-5.44,0l0,-22l5.04,0z" transform="translate(0 0)"/><path id="svg_25" fill="#ed7323" d="m388.76,384l0,-11.8c0,-2.9 -1.52,-5.53 -4.5,-5.53s-4.68,2.63 -4.68,5.53l0,11.8l-5.44,0l0,-22l5,0l0.4,2.68c1.16,-2.23 3.7,-3 5.8,-3a6.59,6.59 0 0 1 6.51,4.1a8,8 0 0 1 7.36,-4c6.24,0 9.32,3.84 9.32,10.44l0,11.78l-5.44,0l0,-11.89c0,-2.9 -1.2,-5.35 -4.15,-5.35s-4.77,2.54 -4.77,5.44l0,11.8l-5.41,0z" transform="translate(0 0)"/><path id="svg_26" fill="#ed7323" d="m418.73,374.92c0.36,2.72 2.72,4.68 6.56,4.68c2,0 4.64,-0.76 5.89,-2.05l3.48,3.43c-2.32,2.41 -6.11,3.57 -9.45,3.57c-7.58,0 -12.09,-4.68 -12.09,-11.73c0,-6.69 4.55,-11.51 11.69,-11.51c7.36,0 12,4.55 11.11,13.6l-17.19,0.01zm12,-4.5c-0.36,-2.85 -2.59,-4.28 -5.71,-4.28c-2.94,0 -5.35,1.43 -6.15,4.28l11.86,0z" transform="translate(0 0)"/></g></g></svg>